<?xml version="1.0" encoding="UTF-8" standalone="no"?>
<!-- Created with Inkscape (http://www.inkscape.org/) -->

<svg
   xmlns:dc="http://purl.org/dc/elements/1.1/"
   xmlns:cc="http://creativecommons.org/ns#"
   xmlns:rdf="http://www.w3.org/1999/02/22-rdf-syntax-ns#"
   xmlns:svg="http://www.w3.org/2000/svg"
   xmlns="http://www.w3.org/2000/svg"
   xmlns:sodipodi="http://sodipodi.sourceforge.net/DTD/sodipodi-0.dtd"
   xmlns:inkscape="http://www.inkscape.org/namespaces/inkscape"
   width="467.84763"
   height="120.58747"
   id="svg2"
   version="1.1"
   inkscape:version="0.48.4 r9939"
   sodipodi:docname="logo.svg">
  <defs
     id="defs4" />
  <sodipodi:namedview
     id="base"
     pagecolor="#ffffff"
     bordercolor="#666666"
     borderopacity="1.0"
     inkscape:pageopacity="0.0"
     inkscape:pageshadow="2"
     inkscape:zoom="1"
     inkscape:cx="232.47546"
     inkscape:cy="44.449569"
     inkscape:document-units="px"
     inkscape:current-layer="layer1"
     showgrid="false"
     fit-margin-top="10"
     fit-margin-left="10"
     fit-margin-right="10"
     fit-margin-bottom="10"
     inkscape:window-width="1855"
     inkscape:window-height="1056"
     inkscape:window-x="65"
     inkscape:window-y="24"
     inkscape:window-maximized="1" />
  <metadata
     id="metadata7">
    <rdf:RDF>
      <cc:Work
         rdf:about="">
        <dc:format>image/svg+xml</dc:format>
        <dc:type
           rdf:resource="http://purl.org/dc/dcmitype/StillImage" />
        <dc:title></dc:title>
      </cc:Work>
    </rdf:RDF>
  </metadata>
  <g
     inkscape:label="Layer 1"
     inkscape:groupmode="layer"
     id="layer1"
     transform="translate(73.952678,-92.685241)">
    <g
       id="g4022"
       transform="matrix(2,0,0,2,-159.97113,-152.97897)">
      <g
         id="text2985"
         style="font-size:64px;font-style:normal;font-variant:normal;font-weight:bold;font-stretch:normal;line-height:125%;letter-spacing:0px;word-spacing:0px;fill:#5f6163;fill-opacity:1;stroke:none;font-family:Crushed;-inkscape-font-specification:Crushed Bold">
        <path
           id="path4008"
           d="m 126.96429,129.42468 0,3.65625 -12.4375,0 c -0.12501,2.39587 -0.21876,4.7917 -0.28125,7.1875 -0.0417,2.37503 -0.0729,4.68753 -0.0937,6.9375 l 11.90625,0 0,3.65625 -11.90625,0 c -1e-5,2.68752 0.0208,5.57294 0.0625,8.65625 0.0416,3.06251 0.1354,6.12501 0.28125,9.1875 l 12.65625,0 0,3.65625 -18.3125,0 c 0.12499,-1.77083 0.21874,-3.58333 0.28125,-5.4375 0.0833,-1.87499 0.14583,-3.72915 0.1875,-5.5625 0.0417,-1.85415 0.0729,-3.66665 0.0937,-5.4375 0.0208,-1.77081 0.0312,-3.45831 0.0312,-5.0625 -1e-5,-1.60414 -0.0104,-3.29164 -0.0312,-5.0625 -0.0208,-1.7708 -0.0521,-3.57288 -0.0937,-5.40625 -0.0417,-1.8333 -0.10417,-3.67705 -0.1875,-5.53125 -0.0625,-1.85412 -0.15626,-3.66662 -0.28125,-5.4375 l 18.125,0"
           inkscape:connector-curvature="0" />
        <path
           id="path4010"
           d="m 143.15179,129.42468 c 1.74998,5e-5 3.31248,0.30213 4.6875,0.90625 1.37498,0.58338 2.53123,1.44796 3.46875,2.59375 0.95831,1.14587 1.67706,2.54171 2.15625,4.1875 0.49997,1.64587 0.74997,3.51045 0.75,5.59375 -3e-5,0.89586 -0.0834,1.8542 -0.25,2.875 -0.16669,1.00003 -0.43753,1.98961 -0.8125,2.96875 -0.37503,0.97919 -0.85419,1.92711 -1.4375,2.84375 -0.58336,0.89586 -1.30211,1.68752 -2.15625,2.375 -0.83336,0.68752 -1.81252,1.2396 -2.9375,1.65625 -1.10419,0.39585 -2.3646,0.59377 -3.78125,0.59375 l -4.8125,0 c 0.0417,2.66668 0.0937,5.39585 0.15625,8.1875 0.0833,2.77084 0.20832,5.48959 0.375,8.15625 l -5.84375,0 c 0.12499,-1.77083 0.21874,-3.58333 0.28125,-5.4375 0.0833,-1.87499 0.14583,-3.72915 0.1875,-5.5625 0.0417,-1.85415 0.0729,-3.66665 0.0937,-5.4375 0.0208,-1.77081 0.0312,-3.45831 0.0312,-5.0625 -1e-5,-1.60414 -0.0104,-3.29164 -0.0312,-5.0625 -0.0208,-1.7708 -0.0521,-3.57288 -0.0937,-5.40625 -0.0417,-1.8333 -0.10417,-3.67705 -0.1875,-5.53125 -0.0625,-1.85412 -0.15626,-3.66662 -0.28125,-5.4375 l 10.4375,0 m -4.75,3.5 c -0.14585,3.08337 -0.25001,6.1667 -0.3125,9.25 -0.0417,3.08336 -0.0625,5.97919 -0.0625,8.6875 l 0,1.6875 4.8125,0 c 1.87498,2e-5 3.33331,-0.85414 4.375,-2.5625 1.04164,-1.72914 1.56248,-4.15622 1.5625,-7.28125 -2e-5,-3.18746 -0.48961,-5.61455 -1.46875,-7.28125 -0.97919,-1.66663 -2.46877,-2.49996 -4.46875,-2.5 l -4.4375,0"
           inkscape:connector-curvature="0" />
        <path
           id="path4012"
           d="m 166.21429,169.67468 c 0.83332,1e-5 1.64582,-0.12499 2.4375,-0.375 0.81248,-0.27083 1.53123,-0.69791 2.15625,-1.28125 0.62498,-0.58333 1.12498,-1.32291 1.5,-2.21875 0.37498,-0.91666 0.56248,-2.03124 0.5625,-3.34375 -2e-5,-1.12499 -0.22919,-2.16665 -0.6875,-3.125 -0.43752,-0.95832 -1.02085,-1.87498 -1.75,-2.75 -0.72918,-0.87498 -1.56252,-1.71873 -2.5,-2.53125 -0.93751,-0.83331 -1.89585,-1.66664 -2.875,-2.5 -0.97918,-0.83331 -1.93751,-1.68747 -2.875,-2.5625 -0.93751,-0.89581 -1.77084,-1.83331 -2.5,-2.8125 -0.72917,-0.99997 -1.32292,-2.07289 -1.78125,-3.21875 -0.4375,-1.1458 -0.65625,-2.3958 -0.65625,-3.75 0,-1.97913 0.36458,-3.64579 1.09375,-5 0.72916,-1.35412 1.65624,-2.43746 2.78125,-3.25 1.12499,-0.83329 2.36457,-1.42704 3.71875,-1.78125 1.37499,-0.35412 2.70832,-0.5312 4,-0.53125 1.35415,5e-5 2.65623,0.11463 3.90625,0.34375 1.27081,0.20838 2.48956,0.43755 3.65625,0.6875 l 0,6.21875 c -0.66669,-0.56246 -1.30211,-1.07288 -1.90625,-1.53125 -0.58335,-0.45829 -1.1771,-0.84371 -1.78125,-1.15625 -0.58335,-0.33329 -1.18752,-0.58329 -1.8125,-0.75 -0.62502,-0.18746 -1.29168,-0.28121 -2,-0.28125 -0.87502,4e-5 -1.70835,0.12504 -2.5,0.375 -0.77085,0.22921 -1.44793,0.59379 -2.03125,1.09375 -0.56251,0.50004 -1.02084,1.13546 -1.375,1.90625 -0.33334,0.77087 -0.50001,1.68754 -0.5,2.75 -1e-5,1.4792 0.38541,2.83337 1.15625,4.0625 0.77082,1.20836 1.73957,2.36461 2.90625,3.46875 1.16665,1.10419 2.42707,2.20836 3.78125,3.3125 1.35415,1.10419 2.61456,2.29169 3.78125,3.5625 1.16664,1.27085 2.13539,2.66669 2.90625,4.1875 0.77081,1.50002 1.15622,3.21876 1.15625,5.15625 -3e-5,1.45834 -0.16669,2.75001 -0.5,3.875 -0.33336,1.10417 -0.79169,2.07292 -1.375,2.90625 -0.56252,0.81251 -1.21877,1.5 -1.96875,2.0625 -0.75002,0.5625 -1.5521,1.02084 -2.40625,1.375 -0.85419,0.33334 -1.7396,0.57292 -2.65625,0.71875 -0.89585,0.14584 -1.77085,0.21875 -2.625,0.21875 -1.02085,0 -1.95835,-0.0417 -2.8125,-0.125 -0.85418,-0.0625 -1.65626,-0.16666 -2.40625,-0.3125 -0.72917,-0.125 -1.41667,-0.27083 -2.0625,-0.4375 -0.62501,-0.1875 -1.23959,-0.38541 -1.84375,-0.59375 l 0,-6.40625 c 0.64583,0.60418 1.29166,1.17709 1.9375,1.71875 0.64583,0.52084 1.31249,0.97917 2,1.375 0.70832,0.39584 1.44791,0.70834 2.21875,0.9375 0.77082,0.20834 1.61457,0.31251 2.53125,0.3125"
           inkscape:connector-curvature="0" />
        <path
           id="path4014"
           d="m 188.93304,129.42468 c -0.12501,1.77088 -0.22918,3.58338 -0.3125,5.4375 -0.0625,1.8542 -0.1146,3.69795 -0.15625,5.53125 -0.0417,1.83337 -0.0729,3.63545 -0.0937,5.40625 -0.0208,1.77086 -0.0313,3.45836 -0.0312,5.0625 -1e-5,1.60419 0.0104,3.29169 0.0312,5.0625 0.0208,1.77085 0.0521,3.58335 0.0937,5.4375 0.0417,1.83335 0.0937,3.68751 0.15625,5.5625 0.0625,1.85417 0.14582,3.66667 0.25,5.4375 l -5.84375,0 c 0.12499,-1.77083 0.21874,-3.58333 0.28125,-5.4375 0.0833,-1.87499 0.14583,-3.72915 0.1875,-5.5625 0.0417,-1.85415 0.0729,-3.66665 0.0937,-5.4375 0.0208,-1.77081 0.0312,-3.45831 0.0312,-5.0625 -1e-5,-1.60414 -0.0104,-3.29164 -0.0312,-5.0625 -0.0208,-1.7708 -0.0521,-3.57288 -0.0937,-5.40625 -0.0417,-1.8333 -0.10417,-3.67705 -0.1875,-5.53125 -0.0625,-1.85412 -0.15626,-3.66662 -0.28125,-5.4375 l 5.90625,0"
           inkscape:connector-curvature="0" />
        <path
           id="path4016"
           d="m 201.24554,129.42468 c -0.12501,1.77088 -0.22918,3.58338 -0.3125,5.4375 -0.0625,1.8542 -0.1146,3.69795 -0.15625,5.53125 -0.0417,1.83337 -0.0729,3.63545 -0.0937,5.40625 -0.0208,1.77086 -0.0313,3.45836 -0.0312,5.0625 -1e-5,2.68752 0.0208,5.57294 0.0625,8.65625 0.0417,3.06251 0.1354,6.12501 0.28125,9.1875 l 12.65625,0 0,3.65625 -18.3125,0 c 0.12499,-1.77083 0.21874,-3.58333 0.28125,-5.4375 0.0833,-1.87499 0.14583,-3.72915 0.1875,-5.5625 0.0417,-1.85415 0.0729,-3.66665 0.0937,-5.4375 0.0208,-1.77081 0.0312,-3.45831 0.0312,-5.0625 -1e-5,-1.60414 -0.0104,-3.29164 -0.0312,-5.0625 -0.0208,-1.7708 -0.0521,-3.57288 -0.0937,-5.40625 -0.0417,-1.8333 -0.10417,-3.67705 -0.1875,-5.53125 -0.0625,-1.85412 -0.15626,-3.66662 -0.28125,-5.4375 l 5.90625,0"
           inkscape:connector-curvature="0" />
        <path
           id="path4018"
           d="m 243.15179,150.92468 c -3e-5,3.85419 -0.34378,7.18752 -1.03125,10 -0.68753,2.79168 -1.64586,5.10418 -2.875,6.9375 -1.20836,1.81251 -2.63544,3.15625 -4.28125,4.03125 -1.64586,0.875 -3.41669,1.3125 -5.3125,1.3125 -1.91668,0 -3.69793,-0.4375 -5.34375,-1.3125 -1.64585,-0.875 -3.08334,-2.21874 -4.3125,-4.03125 -1.20834,-1.83332 -2.16667,-4.14582 -2.875,-6.9375 -0.68751,-2.81248 -1.03126,-6.14581 -1.03125,-10 -1e-5,-3.83331 0.34374,-7.1458 1.03125,-9.9375 0.70833,-2.81246 1.66666,-5.13538 2.875,-6.96875 1.22916,-1.83329 2.66665,-3.18746 4.3125,-4.0625 1.64582,-0.87495 3.42707,-1.31245 5.34375,-1.3125 1.89581,5e-5 3.66664,0.43755 5.3125,1.3125 1.64581,0.87504 3.07289,2.22921 4.28125,4.0625 1.22914,1.83337 2.18747,4.15629 2.875,6.96875 0.68747,2.7917 1.03122,6.10419 1.03125,9.9375 m -5.375,0 c -3e-5,-3.20831 -0.20836,-5.97914 -0.625,-8.3125 -0.41669,-2.3333 -0.98961,-4.24996 -1.71875,-5.75 -0.72919,-1.52079 -1.59377,-2.63538 -2.59375,-3.34375 -0.97919,-0.72912 -2.04169,-1.09371 -3.1875,-1.09375 -1.16668,4e-5 -2.25002,0.36463 -3.25,1.09375 -0.97918,0.70837 -1.84376,1.82296 -2.59375,3.34375 -0.72918,1.50004 -1.3021,3.4167 -1.71875,5.75 -0.41668,2.33336 -0.62501,5.10419 -0.625,8.3125 -1e-5,3.22919 0.20832,6.01043 0.625,8.34375 0.41665,2.33335 0.98957,4.25001 1.71875,5.75 0.74999,1.50001 1.61457,2.61459 2.59375,3.34375 0.99998,0.70834 2.08332,1.06251 3.25,1.0625 1.14581,1e-5 2.20831,-0.35416 3.1875,-1.0625 0.99998,-0.72916 1.86456,-1.84374 2.59375,-3.34375 0.72914,-1.49999 1.30206,-3.41665 1.71875,-5.75 0.41664,-2.33332 0.62497,-5.11456 0.625,-8.34375"
           inkscape:connector-curvature="0" />
        <path
           id="path4020"
           d="m 271.93304,129.42468 c -0.12503,1.77088 -0.2292,3.58338 -0.3125,5.4375 -0.0625,1.8542 -0.11461,3.69795 -0.15625,5.53125 -0.0417,1.83337 -0.0729,3.63545 -0.0937,5.40625 -0.0209,1.77086 -0.0313,3.45836 -0.0312,5.0625 -3e-5,1.60419 0.0104,3.29169 0.0312,5.0625 0.0208,1.77085 0.0521,3.58335 0.0937,5.4375 0.0416,1.83335 0.0937,3.68751 0.15625,5.5625 0.0625,1.85417 0.1458,3.66667 0.25,5.4375 l -5.78125,0 c -1.06252,-3.06249 -2.10419,-5.97916 -3.125,-8.75 -1.02085,-2.77082 -2.04169,-5.4479 -3.0625,-8.03125 -1.00002,-2.60414 -2.00002,-5.13539 -3,-7.59375 -1.00001,-2.47914 -2.00001,-4.93747 -3,-7.375 l -0.21875,0 c -0.0417,1.81253 -0.0625,3.58336 -0.0625,5.3125 0.0208,1.70836 0.0312,3.35419 0.0312,4.9375 -1e-5,1.60419 0.0104,3.29169 0.0312,5.0625 0.0208,1.77085 0.0521,3.58335 0.0937,5.4375 0.0417,1.83335 0.0937,3.68751 0.15625,5.5625 0.0625,1.85417 0.14582,3.66667 0.25,5.4375 l -5.71875,0 c 0.12499,-1.77083 0.21874,-3.58333 0.28125,-5.4375 0.0833,-1.87499 0.14583,-3.72915 0.1875,-5.5625 0.0417,-1.85415 0.0729,-3.66665 0.0937,-5.4375 0.0208,-1.77081 0.0312,-3.45831 0.0312,-5.0625 -1e-5,-1.60414 -0.0104,-3.29164 -0.0312,-5.0625 -0.0208,-1.7708 -0.0521,-3.57288 -0.0937,-5.40625 -0.0417,-1.8333 -0.10417,-3.67705 -0.1875,-5.53125 -0.0625,-1.85412 -0.15626,-3.66662 -0.28125,-5.4375 l 5.84375,0 c 2.10415,6.12504 4.16665,11.90628 6.1875,17.34375 2.02081,5.43752 4.04164,10.59377 6.0625,15.46875 l 0.21875,0 c 0.0208,-0.91665 0.0312,-1.87499 0.0312,-2.875 -2e-5,-0.99998 -0.0104,-1.98957 -0.0312,-2.96875 -2e-5,-0.99998 -0.0104,-1.96873 -0.0312,-2.90625 -2e-5,-0.93748 -2e-5,-1.81248 0,-2.625 -2e-5,-1.60414 -0.0104,-3.29164 -0.0312,-5.0625 -0.0209,-1.7708 -0.0521,-3.57288 -0.0937,-5.40625 -0.0417,-1.8333 -0.10419,-3.67705 -0.1875,-5.53125 -0.0625,-1.85412 -0.15627,-3.66662 -0.28125,-5.4375 l 5.78125,0"
           inkscape:connector-curvature="0" />
      </g>
      <g
         transform="translate(-23.334524,-70.003571)"
         id="g4001">
        <g
           id="g3914"
           transform="translate(-73.486208,11.251477)">
          <g
             id="g3998">
            <path
               sodipodi:nodetypes="cccccccccssccccccsscccccccccccsccccccscccccccccccccscccccccscccccccccccccccscccccccccccccccccccccccccccccccccccscscccccccccccccccccccccccccsccc"
               inkscape:connector-curvature="0"
               id="path3794-5-1-1"
               d="m 170.84375,205.1875 0,2.1875 -7.1875,0.0312 -0.21875,0 -0.125,0.15625 -4.21875,4.25 -6.71875,-0.0312 -1.09375,1.00005 -3.375,3.40625 c -0.6136,-0.28594 -1.33992,-0.29669 -1.875,0.1875 -0.70331,0.63643 -0.78856,1.70749 -0.15625,2.40625 0.63231,0.69876 1.73418,0.76142 2.4375,0.125 0.57741,-0.52251 0.62222,-1.33229 0.3125,-2 l 4.0625,-4.125 c 1.52171,-0.009 3.04077,-0.0237 4.5625,-0.0312 l 0,4.96875 -5.75,5.75 c -0.62372,-0.32442 -1.38361,-0.34496 -1.9375,0.15625 -0.70331,0.63643 -0.78856,1.70749 -0.15625,2.40625 0.63231,0.69876 1.73418,0.73027 2.4375,0.0937 0.55895,-0.5058 0.58307,-1.25019 0.3125,-1.90625 L 158.25,218.125 c -8.9e-4,-1.79048 0.0205,-3.58445 0.0312,-5.375 0.40647,-0.002 0.81229,0.003 1.21875,0 l 4.375,-4.375 6.96875,0.0312 0,13 c -2.37336,-0.0135 -4.75584,0.0708 -7.125,0 -2.29996,2.37225 -4.66222,4.69347 -7,7.03125 -0.60178,-0.24939 -1.29623,-0.27968 -1.8125,0.1875 -0.70332,0.63642 -0.78857,1.73874 -0.15625,2.4375 0.63231,0.69874 1.73419,0.73022 2.4375,0.0937 0.59757,-0.54073 0.63605,-1.38393 0.28125,-2.0625 l 6.65625,-6.65625 3.0625,-0.0312 -0.0312,4.84375 -4.65625,4.6875 c -0.62373,-0.32446 -1.38361,-0.34496 -1.9375,0.15625 -0.7033,0.63642 -0.81981,1.70749 -0.1875,2.40625 0.63231,0.69874 1.73419,0.73025 2.4375,0.0937 0.56806,-0.51404 0.63337,-1.27551 0.34375,-1.9375 1.68903,-1.67272 3.28137,-3.44386 5.03125,-5.03125 0.01,-1.74467 0,-3.474 0,-5.21875 l 2.65625,0 -0.0312,11.18933 c -0.626,0.24294 -1.12888,0.75303 -1.15625,1.46875 -0.0362,0.94782 0.71458,1.77652 1.65625,1.8125 0.9417,0.036 1.6825,-0.7397 1.71875,-1.6875 0.0303,-0.7933 -0.50282,-1.39332 -1.21875,-1.625 l 0,-8.81433 8.03125,8 c -0.28028,0.6162 -0.30158,1.34439 0.1875,1.875 0.64285,0.69743 1.74457,0.76369 2.4375,0.125 0.69297,-0.63869 0.70531,-1.70881 0.0625,-2.40625 -0.52753,-0.57233 -1.30406,-0.62776 -1.96875,-0.3125 l -8.71875,-8.71875 0,-3.21875 9.21875,0 7.21875,7.21875 c -0.28741,0.61832 -0.30485,1.34086 0.1875,1.875 0.64286,0.69744 1.74457,0.79494 2.4375,0.15625 0.69298,-0.63869 0.67411,-1.74007 0.0312,-2.4375 -0.52928,-0.57424 -1.33423,-0.63196 -2,-0.3125 L 186.375,224 l 5.84375,0.0312 c 0.25818,0.63722 0.76802,1.12756 1.5,1.125 0.94852,-0.003 1.7533,-0.74512 1.75,-1.6875 -0.003,-0.94237 -0.80148,-1.72208 -1.75,-1.71875 -0.76404,0.003 -1.30247,0.59813 -1.53125,1.28125 L 185.375,223 l -3.90625,-3.90625 -9.625,0 0,-8.375 14.8125,0 8.53125,7.90625 c -0.26516,0.61143 -0.29456,1.32076 0.1875,1.84375 0.64286,0.69743 1.74458,0.76369 2.4375,0.125 0.69298,-0.6387 0.67411,-1.74007 0.0312,-2.4375 -0.53727,-0.58288 -1.36079,-0.62005 -2.03125,-0.28125 -2.93315,-2.7116 -5.83003,-5.46562 -8.78125,-8.15625 l -15.1875,0 0,-4.53125 -1,0 z m -23.625,11.71875 c 0.18278,0.003 0.37338,0.08 0.5,0.21875 0.25276,0.27932 0.25802,0.74126 -0.0625,1.03125 -0.32047,0.28999 -0.80974,0.24795 -1.0625,-0.0312 -0.25274,-0.2793 -0.22659,-0.74126 0.0937,-1.03125 0.15965,-0.14447 0.34847,-0.19069 0.53125,-0.1875 z m 49.40625,1.6875 c 0.18666,0.0147 0.38478,0.0911 0.53125,0.25 0.29291,0.31779 0.24568,0.77594 -0.0312,1.03125 -0.27697,0.25529 -0.70708,0.22395 -1,-0.0937 -0.29185,-0.31663 -0.27424,-0.77546 0,-1.03125 0.1385,-0.12765 0.31334,-0.17097 0.5,-0.15625 z m -2.90625,4.15625 c 0.4322,-0.002 0.74868,0.34205 0.75,0.71875 0.001,0.37668 -0.31781,0.68599 -0.75,0.6875 -0.43062,0.002 -0.74674,-0.28097 -0.75,-0.65625 -0.001,-0.3767 0.3178,-0.74848 0.75,-0.75 z m -42.9375,1.40625 c 0.18278,0.003 0.34213,0.0488 0.46875,0.1875 0.25275,0.27932 0.25801,0.77251 -0.0625,1.0625 -0.32047,0.28999 -0.7785,0.24795 -1.03125,-0.0312 -0.25274,-0.2793 -0.2266,-0.74126 0.0937,-1.03125 0.15965,-0.14447 0.34847,-0.19069 0.53125,-0.1875 z m 38.90625,3.1875 c 0.17884,0.0147 0.38479,0.0911 0.53125,0.25 0.29292,0.3178 0.27653,0.74469 0,1 -0.27696,0.2553 -0.70707,0.2553 -1,-0.0625 -0.29185,-0.31663 -0.27424,-0.77548 0,-1.03125 0.13849,-0.12766 0.28991,-0.171 0.46875,-0.15625 z m -33.5625,1.8125 c 0.17843,6.9e-4 0.34212,0.08 0.46875,0.21875 l 0,0.0312 c 0.25276,0.27931 0.22663,0.71001 -0.0937,1 -0.32046,0.29 -0.74726,0.27879 -1,0 -0.25274,-0.27931 -0.22664,-0.74125 0.0937,-1.03125 0.15965,-0.14446 0.35282,-0.21944 0.53125,-0.21875 z m 5.625,3.46875 c 0.18627,0.008 0.37336,0.0803 0.5,0.21875 0.25276,0.27932 0.22663,0.71001 -0.0937,1 -0.32047,0.29 -0.7785,0.2789 -1.03125,0 -0.25274,-0.27931 -0.22664,-0.74126 0.0937,-1.03125 0.15965,-0.14447 0.34498,-0.19589 0.53125,-0.1875 z m 19.53125,0.125 c 0.18657,0.0156 0.38478,0.0911 0.53125,0.25 0.29293,0.31781 0.27663,0.77593 0,1.03125 -0.27696,0.25529 -0.73832,0.22396 -1.03125,-0.0937 -0.29185,-0.31663 -0.30541,-0.74423 -0.0312,-1 l 0.0312,-0.0312 c 0.13849,-0.12766 0.31343,-0.17187 0.5,-0.15625 z m -9.90625,1.62683 c 0.37643,0.0144 0.67275,0.34936 0.65625,0.78125 -0.0165,0.43191 -0.31108,0.73313 -0.6875,0.71875 -0.37642,-0.0144 -0.70399,-0.34936 -0.6875,-0.78125 0.0165,-0.43033 0.34366,-0.73113 0.71875,-0.71875 z"
               style="font-size:medium;font-style:normal;font-variant:normal;font-weight:normal;font-stretch:normal;text-indent:0;text-align:start;text-decoration:none;line-height:normal;letter-spacing:normal;word-spacing:normal;text-transform:none;direction:ltr;block-progression:tb;writing-mode:lr-tb;text-anchor:start;baseline-shift:baseline;color:#000000;fill:#797371;fill-opacity:1;stroke:none;stroke-width:1;marker:none;visibility:visible;display:inline;overflow:visible;enable-background:accumulate;font-family:Sans;-inkscape-font-specification:Sans" />
          </g>
        </g>
        <path
           style="font-size:medium;font-style:normal;font-variant:normal;font-weight:normal;font-stretch:normal;text-indent:0;text-align:start;text-decoration:none;line-height:normal;letter-spacing:normal;word-spacing:normal;text-transform:none;direction:ltr;block-progression:tb;writing-mode:lr-tb;text-anchor:start;baseline-shift:baseline;color:#000000;fill:#b0b100;fill-opacity:1;stroke:none;stroke-width:1px;marker:none;visibility:visible;display:inline;overflow:visible;enable-background:accumulate;font-family:Sans;-inkscape-font-specification:Sans"
           d="m 106.15625,197.90625 c -0.93867,0.13156 -1.78246,0.44466 -2.53125,0.9375 -1.49757,0.98567 -2.60482,2.61605 -3.4375,4.625 -1.284529,3.09907 -1.881671,7.26436 -2.34375,11.625 -0.831318,-4.48033 -2.470482,-8.50223 -4.6875,-11.3125 -1.389982,-1.76193 -3.015107,-3.0491 -4.78125,-3.6875 -1.766143,-0.6384 -3.697218,-0.59999 -5.59375,0.3125 -7.29423,3.50951 -11.191012,9.85127 -11.4375,18.96875 l 0,0.40625 0.40625,0.0937 c 0.219992,0.054 0.221341,0.0116 0.3125,0 0.09116,-0.0116 0.185241,-0.037 0.3125,-0.0625 0.254518,-0.051 0.591684,-0.10807 1,-0.21875 0.816632,-0.22136 1.913973,-0.58371 3.15625,-1.0625 2.484554,-0.95758 5.548648,-2.43066 8.03125,-4.5625 2.473951,-2.12442 4.406989,-4.75849 5.15625,-7 0.37463,-1.12076 0.459781,-2.16585 0.0625,-3.03125 -0.397281,-0.8654 -1.303053,-1.41314 -2.5625,-1.5 -1.400702,-0.0966 -2.847089,0.79595 -4.3125,2.0625 -1.465411,1.26655 -2.942201,2.96035 -4.28125,4.65625 -2.678097,3.3918 -4.78125,6.8125 -4.78125,6.8125 3.764448,-4.10101 4.18058,-4.91201 5.386696,-6.28468 1.206116,-1.37266 2.947791,-3.23765 4.332054,-4.43407 1.384263,-1.19642 2.705863,-1.87374 3.59375,-1.8125 1.029141,0.071 1.483396,0.39357 1.71875,0.90625 0.235354,0.51268 0.20374,1.32903 -0.125,2.3125 -0.65748,1.96694 -2.486635,4.50716 -4.84375,6.53125 -2.348464,2.01666 -5.303264,3.47528 -7.71875,4.40625 -1.207743,0.46548 -2.280298,0.81923 -3.0625,1.03125 -0.286423,0.0776 -0.487339,0.11149 -0.6875,0.15625 0.402756,-8.4741 3.959344,-14.18649 10.78125,-17.46875 1.677483,-0.8071 3.275249,-0.83692 4.8125,-0.28125 1.537251,0.55567 2.996019,1.72802 4.3125,3.375 2.602514,3.25587 4.061422,8.5287 5.032963,14.25 l 0.479304,3.88834 0.41838,-3.92916 c 0.952764,-5.56066 1.277783,-10.97707 2.850603,-14.77168 0.78641,-1.8973 1.76932,-3.32567 3.03125,-4.15625 1.26193,-0.83058 2.80606,-1.11967 4.84375,-0.625 8.02568,1.94832 14.95004,10.0262 15.625,18.4375 -0.18398,-0.11123 -0.319,-0.22402 -0.5625,-0.375 -0.84988,-0.52697 -2.06894,-1.27049 -3.5,-2.125 -2.86212,-1.70902 -6.6747,-3.85004 -10.6875,-5.5 -3.89131,-1.60001 -6.1044,-3.82864 -6.5625,-5.28125 -0.22905,-0.7263 -0.0983,-1.15052 0.375,-1.5 0.47334,-0.34948 1.45552,-0.5933 2.96875,-0.40625 9.64778,1.28342 13.55472,9.78013 16.3125,11.75 -4.81406,-7.43991 -9.65965,-11.91185 -16.1875,-12.71875 -1.65437,-0.2045 -2.88405,-0.0307 -3.6875,0.5625 -0.80345,0.59321 -1.03375,1.62616 -0.71875,2.625 0.62999,1.99769 3.06472,4.23677 7.125,5.90625 l 0.0625,0.0312 c 3.9152,1.61593 7.67574,3.71983 10.5,5.40625 1.42001,0.84792 2.61403,1.56378 3.46875,2.09375 0.42736,0.26498 0.77284,0.47699 1.03125,0.625 0.12921,0.074 0.21533,0.14204 0.3125,0.1875 0.0486,0.0227 0.0975,0.0439 0.15625,0.0625 0.0587,0.0186 0.13527,0.0825 0.34375,0.0312 l 0.375,-0.0937 0,-0.40625 c -0.24999,-9.24678 -7.69688,-18.1442 -16.5,-20.28125 -1.11978,-0.27184 -2.15508,-0.31906 -3.09375,-0.1875 z"
           id="path3973-7"
           inkscape:connector-curvature="0"
           sodipodi:nodetypes="csscssscccssssssssssczscssssccssscccssscsssscccsssccssccccccscc" />
      </g>
    </g>
  </g>
</svg>
